<svg height="512" viewBox="0 0 64 64" width="512" xmlns="http://www.w3.org/2000/svg"><g id="Filled_outline" data-name="Filled outline"><path d="m13 29h6v20h-6z" fill="#66342e"/><rect fill="#d3843d" height="6" rx="2" width="10" x="11" y="49"/><rect fill="#d3843d" height="6" rx="2" width="10" x="11" y="23"/><path d="m39 12a9 9 0 0 0 -9-9 16 16 0 0 0 -16 16v4h4v-4a12 12 0 0 1 12-12 5 5 0 0 1 5 5 11 11 0 0 0 11 11h7a4 4 0 0 1 4 4 4 4 0 0 1 -4 4h-4a8 8 0 0 0 -8 8 12 12 0 0 0 12 12h.675a3.235 3.235 0 0 1 3.2 2.426 2.92 2.92 0 0 1 -2.875 3.574h-9.893a2.075 2.075 0 0 0 -2.08 1.664 2 2 0 0 0 1.973 2.336h9.707a7.2 7.2 0 0 0 7.293-6.785 7 7 0 0 0 -7-7.215h-1a8 8 0 0 1 -8-8 4 4 0 0 1 4-4h4a8 8 0 0 0 8-8 8 8 0 0 0 -8-8h-7a7 7 0 0 1 -7-7z" fill="#394d5c"/><path d="m13 45h6v4h-6z" fill="#66342e"/><path d="m13 41h6v4h-6z" fill="#995f5b"/><path d="m13 37h6v4h-6z" fill="#66342e"/><path d="m13 33h6v4h-6z" fill="#995f5b"/><path d="m13 29h6v4h-6z" fill="#66342e"/><path d="m29 45a3 3 0 0 1 -3-3l-1-5h8l-1 5a3 3 0 0 1 -3 3z" fill="#d3843d"/><path d="m53 18h-7a6.006 6.006 0 0 1 -6-6 10.011 10.011 0 0 0 -10-10 17.019 17.019 0 0 0 -17 17v3a3 3 0 0 0 -3 3v2a3 3 0 0 0 2 2.816v18.368a3 3 0 0 0 -2 2.816v2a3 3 0 0 0 2.359 2.927.979.979 0 0 1 -.359.073 4 4 0 0 1 -4-4v-2a3 3 0 0 0 -6 0v2a10.011 10.011 0 0 0 10 10 7.006 7.006 0 0 0 6.92-6h.08a3 3 0 0 0 3-3v-2a3 3 0 0 0 -2-2.816v-18.368a3 3 0 0 0 2-2.816v-2a3 3 0 0 0 -3-3v-3a11.013 11.013 0 0 1 11-11 4 4 0 0 1 4 4 12.013 12.013 0 0 0 12 12h7a3 3 0 0 1 0 6h-4a9.01 9.01 0 0 0 -9 9 13.015 13.015 0 0 0 13 13h.675a2.229 2.229 0 0 1 2.225 1.644 1.892 1.892 0 0 1 -.362 1.626 1.959 1.959 0 0 1 -1.538.73h-9.893a3.122 3.122 0 0 0 -2.934 2h-3.173a2 2 0 0 1 -2-2 4 4 0 0 0 -4-4 2 2 0 0 1 -2-2v-4.142a4 4 0 0 0 3-3.753l.98-4.905a1 1 0 0 0 -.98-1.2h-8a1 1 0 0 0 -.98 1.2l.98 4.905a4 4 0 0 0 3 3.753v4.142a4 4 0 0 0 4 4 2 2 0 0 1 2 2 4 4 0 0 0 4 4h3.188a2.936 2.936 0 0 0 2.812 2h9.706a8.215 8.215 0 0 0 8.294-7.755 8 8 0 0 0 -8-8.245h-1a7.009 7.009 0 0 1 -7-7 3 3 0 0 1 3-3h4a9 9 0 0 0 0-18zm-37.7-2h2.061a12.92 12.92 0 0 0 -.312 2h-2a15.117 15.117 0 0 1 .251-2zm-.3 4h2v2h-2zm-3 40a8.009 8.009 0 0 1 -8-8v-2a1 1 0 0 1 2 0v2a6.006 6.006 0 0 0 6 6 3.006 3.006 0 0 0 2.829-2h2.071a5.008 5.008 0 0 1 -4.9 4zm8-7a1 1 0 0 1 -1 1h-6a1 1 0 0 1 -1-1v-2a1 1 0 0 1 1-1h6a1 1 0 0 1 1 1zm-2-19v2h-4v-2zm-4-2v-2h4v2zm4 6v2h-4v-2zm0 4v2h-4v-2zm0 4v2h-4v-2zm2-21v2a1 1 0 0 1 -1 1h-6a1 1 0 0 1 -1-1v-2a1 1 0 0 1 1-1h6a1 1 0 0 1 1 1zm-2-11h-2.125a14.893 14.893 0 0 1 .868-2h2.32a12.994 12.994 0 0 0 -1.063 2zm2.638-4h-2.61a15.122 15.122 0 0 1 2.2-2.357l1.414 1.414a12.944 12.944 0 0 0 -1.001.943zm3.362-2.521c-.24.126-.472.264-.7.4l-1.457-1.45a14.889 14.889 0 0 1 2.157-1.168zm4-1.309a12.986 12.986 0 0 0 -2 .466v-2.078a15.014 15.014 0 0 1 2-.409zm3.411 0a5.966 5.966 0 0 0 -1.411-.17v-2a7.958 7.958 0 0 1 3 .588zm1.962.866 1.427-1.421a8.055 8.055 0 0 1 2.118 2.385h-2.458a6.089 6.089 0 0 0 -1.087-.959zm2.277 2.964h2.087a7.953 7.953 0 0 1 .263 2h-2a5.976 5.976 0 0 0 -.35-2zm1.433 6.5a9.949 9.949 0 0 1 -.883-2.5h2.061a8.077 8.077 0 0 0 .325 1zm2.691 3.309a10.08 10.08 0 0 1 -1.586-1.586l1.427-1.423a8 8 0 0 0 1.585 1.585zm4.226 1.991a9.949 9.949 0 0 1 -2.5-.881l1.5-1.507a8.077 8.077 0 0 0 1 .325zm-15 22.2a2 2 0 0 1 -2-2 1 1 0 0 0 -.02-.2l-.76-3.8h1.78v2h2v-2h1.78l-.76 3.8a1 1 0 0 0 -.02.2 2 2 0 0 1 -2 2zm16 16h-1a1 1 0 0 1 -.985-1.175 1.083 1.083 0 0 1 1.092-.825h.893zm4 0h-2v-2h2zm4 0h-2v-2h2zm-9.144-25.73 1.423 1.423a4.959 4.959 0 0 0 -.855 1.307h-2.124a6.98 6.98 0 0 1 1.556-2.73zm-1.856 4.73h2a8.971 8.971 0 0 0 .232 2h-2.041a10.989 10.989 0 0 1 -.191-2zm.764 4h2.186a8.962 8.962 0 0 0 .6 1.039l-1.43 1.427a10.985 10.985 0 0 1 -1.356-2.466zm12.236 16.867v-2a3.9 3.9 0 0 0 1.6-.849l1.372 1.372a6.436 6.436 0 0 1 -2.972 1.477zm4.917-6.867a6.134 6.134 0 0 1 .083 1.185 5.674 5.674 0 0 1 -.754 2.644l-1.516-1.516a3.929 3.929 0 0 0 .123-2.105c-.016-.072-.047-.138-.067-.208zm-3.17-4.333a6.041 6.041 0 0 1 1.559 1.154 6.11 6.11 0 0 1 .885 1.179h-2.73a4.362 4.362 0 0 0 -1.3-.742zm-5.747-.899a8.971 8.971 0 0 0 2 .232h1c.188 0 .374.011.558.028l-1.952 1.952a10.884 10.884 0 0 1 -1.606-.171zm-4.144-2.21a9.021 9.021 0 0 0 2.144 1.492v2.186a11.025 11.025 0 0 1 -3.558-2.264zm1.144-11.458a4.925 4.925 0 0 0 -1.1.38l-1.486-1.48a6.94 6.94 0 0 1 2.586-.92zm4-.1h-2v-2h2zm-4-12h-2v-2h2zm3.586 0h-1.586v-2h3c.188 0 .373.014.558.028zm4.383 1a4.957 4.957 0 0 0 -1.729-.826l1.577-1.574a7.035 7.035 0 0 1 2.919 2.4zm-1.969 10.92v-2.02a4.961 4.961 0 0 0 1.753-.732l1.431 1.432a6.947 6.947 0 0 1 -3.184 1.32zm4.6-2.736-1.431-1.431a4.972 4.972 0 0 0 .407-.753h2.129a6.958 6.958 0 0 1 -1.105 2.184zm1.4-4.184h-2a4.95 4.95 0 0 0 -.424-2h2.129a6.956 6.956 0 0 1 .295 2z"/></g></svg>