<svg id="Layer_1_1_" enable-background="new 0 0 64 64" height="512" viewBox="0 0 64 64" width="512" xmlns="http://www.w3.org/2000/svg"><path d="m45.404 6.758c-.181-.183-.305-.224-.397-.224-.043 0-.08.009-.112.017-2.224.55-5.82 8.986-8.03 15.712 5.228-5.629 10.7-13.325 8.539-15.505z"/><path d="m48.174 2.721c-1.619-.866-3.118-.953-4.585-.267-5.727 2.679-9.007 15.599-9.664 18.428l.854.861c1.597-4.9 5.703-16.31 9.601-17.274.921-.228 1.822.05 2.545.779 4.342 4.378-5.77 15.655-9.318 19.347l1.028 1.037c4.202-4.152 12.755-13.931 11.998-19.596-.194-1.449-.999-2.533-2.459-3.315z"/><path d="m40.22 33.995.139.14c.416.418 1.136.417 1.55 0l.281-.284c.435-.438.435-1.151 0-1.589l-10.342-10.43c-.415-.419-1.134-.419-1.55 0l-.281.284c-.435.438-.435 1.151-.001 1.588l10.201 10.288c.002.002.003.003.003.003z"/><path d="m40.142 27.152.38.383 11.651-8.905c1.085-.805 1.665-1.686 1.736-2.628.073-.954-.399-1.996-1.327-2.932-.369-.372-.758-.664-1.151-.886-2.802 6.214-9.061 12.755-11.289 14.968z"/><path d="m23.452 28.739c-.512.516-.512 1.356 0 1.872l10.06 10.145c.491.495 1.341.495 1.832 0 .512-.516.512-1.357 0-1.873l-10.06-10.145c-.491-.494-1.341-.494-1.832.001z"/><path d="m28.637 25.357c-.491-.495-1.341-.494-1.832 0-.512.516-.512 1.357 0 1.873l10.06 10.145c.491.495 1.341.494 1.832 0 .511-.516.511-1.355.001-1.871z"/><path d="m45.654 43.887c.274-.276.39-.656.32-1.041-.07-.382-.309-.693-.658-.852l-5.72-2.622c-.518.326-1.111.507-1.735.522-.008.389-.082.775-.219 1.144l6.729 3.085c.432.197.947.103 1.283-.236z"/><path d="m13.928 61.211c-.311.029-.622.043-.931.043-.137 0-.272-.015-.408-.02 1.58.761 3.376.971 5.115.557 2.264-.54 4.151-2.058 5.178-4.164l5.71-11.711-7.396 10.968c-1.666 2.472-4.315 4.049-7.268 4.327z"/><path d="m34.508 43.276c-.013.624-.19 1.244-.536 1.789l1.902 4.793c.142.358.436.607.808.683.372.077.734-.035.999-.305.317-.32.414-.799.247-1.221l-2.356-5.941c-.339.121-.695.193-1.064.202z"/><path d="m57.717 16.438c.221-2.336-.596-4.627-2.24-6.286-.765-.772-1.763-1.412-2.801-1.828-.103.606-.262 1.226-.464 1.855.662.333 1.305.791 1.892 1.383 1.373 1.385 2.063 3.02 1.943 4.604-.083 1.092-.599 2.704-2.584 4.177l-11.419 8.727.912.919 11.398-7.816c1.917-1.315 3.142-3.405 3.363-5.735z"/><path d="m20.098 32.12c-.512.516-.512 1.357.001 1.873l10.06 10.145c.491.495 1.341.495 1.831 0 .512-.516.512-1.356 0-1.872l-10.059-10.146c-.491-.495-1.342-.495-1.833 0z"/><path d="m9.091 50.969c-.073.955.399 1.996 1.327 2.932.924.932 1.949 1.411 2.89 1.335.929-.071 1.8-.655 2.589-1.735l8.851-11.776-2.269-2.288-11.651 8.905c-1.085.804-1.666 1.685-1.737 2.627z"/><path d="m8.647 44.799c-1.918 1.315-3.143 3.405-3.364 5.735-.221 2.337.596 4.628 2.24 6.286 1.638 1.652 3.901 2.469 6.204 2.258 2.311-.218 4.385-1.454 5.692-3.391l7.76-11.509-.908-.915-8.653 11.513c-1.455 1.995-3.06 2.515-4.15 2.597-.116.009-.232.013-.348.013-1.464 0-2.952-.693-4.225-1.976-1.373-1.384-2.063-3.019-1.943-4.603.083-1.093.599-2.705 2.584-4.178l11.419-8.727-.912-.919z"/></svg>